<?xml version="1.0" encoding="UTF-8" standalone="no"?>
<!-- Created with Inkscape (http://www.inkscape.org/) -->

<svg
   width="73.569962mm"
   height="73.569962mm"
   viewBox="0 0 73.569962 73.569962"
   version="1.1"
   id="svg5"
   inkscape:version="1.2.2 (732a01da63, 2022-12-09)"
   sodipodi:docname="icon.svg"
   inkscape:export-filename="icon.png"
   inkscape:export-xdpi="96"
   inkscape:export-ydpi="96"
   xmlns:inkscape="http://www.inkscape.org/namespaces/inkscape"
   xmlns:sodipodi="http://sodipodi.sourceforge.net/DTD/sodipodi-0.dtd"
   xmlns:xlink="http://www.w3.org/1999/xlink"
   xmlns="http://www.w3.org/2000/svg"
   xmlns:svg="http://www.w3.org/2000/svg">
  <sodipodi:namedview
     id="namedview7"
     pagecolor="#ffffff"
     bordercolor="#000000"
     borderopacity="0.25"
     inkscape:showpageshadow="2"
     inkscape:pageopacity="0.0"
     inkscape:pagecheckerboard="0"
     inkscape:deskcolor="#d1d1d1"
     inkscape:document-units="mm"
     showgrid="false"
     inkscape:zoom="1.4770342"
     inkscape:cx="203.78675"
     inkscape:cy="62.964011"
     inkscape:window-width="1920"
     inkscape:window-height="1009"
     inkscape:window-x="-8"
     inkscape:window-y="-8"
     inkscape:window-maximized="1"
     inkscape:current-layer="layer1" />
  <defs
     id="defs2">
    <linearGradient
       inkscape:collect="always"
       id="linearGradient2119">
      <stop
         style="stop-color:#ff0000;stop-opacity:0.60487807;"
         offset="0"
         id="stop2115" />
      <stop
         style="stop-color:#0005ff;stop-opacity:0.66341472;"
         offset="1"
         id="stop2117" />
    </linearGradient>
    <linearGradient
       inkscape:collect="always"
       id="linearGradient1204">
      <stop
         style="stop-color:#ff0000;stop-opacity:1;"
         offset="0.49019608"
         id="stop1200" />
      <stop
         style="stop-color:#0600ff;stop-opacity:1;"
         offset="1"
         id="stop1202" />
    </linearGradient>
    <linearGradient
       inkscape:collect="always"
       id="linearGradient1142">
      <stop
         style="stop-color:#ffc200;stop-opacity:0.62439024;"
         offset="0"
         id="stop1138" />
      <stop
         style="stop-color:#f3ffb7;stop-opacity:0.63414633;"
         offset="1"
         id="stop1140" />
    </linearGradient>
    <linearGradient
       inkscape:collect="always"
       id="linearGradient1111">
      <stop
         style="stop-color:#ff0000;stop-opacity:1;"
         offset="0"
         id="stop1107" />
      <stop
         style="stop-color:#00b0ff;stop-opacity:1;"
         offset="1"
         id="stop1109" />
    </linearGradient>
    <linearGradient
       inkscape:collect="always"
       xlink:href="#linearGradient1111"
       id="linearGradient1113"
       x1="96.372742"
       y1="126.82509"
       x2="96.372742"
       y2="107.12063"
       gradientUnits="userSpaceOnUse"
       gradientTransform="translate(-74.160434,-8.2400482)" />
    <linearGradient
       inkscape:collect="always"
       xlink:href="#linearGradient1142"
       id="linearGradient1144"
       x1="79.650482"
       y1="119.57237"
       x2="110.55048"
       y2="119.57237"
       gradientUnits="userSpaceOnUse"
       gradientTransform="translate(-74.160434,-8.2400482)" />
    <radialGradient
       inkscape:collect="always"
       xlink:href="#linearGradient1204"
       id="radialGradient1208"
       cx="19.704466"
       cy="111.06153"
       fx="19.704462"
       fy="111.06153"
       r="36.784981"
       gradientUnits="userSpaceOnUse"
       gradientTransform="matrix(-0.99039028,0.96379047,-0.90547995,-0.93047038,139.78357,195.41001)" />
    <linearGradient
       inkscape:collect="always"
       xlink:href="#linearGradient2119"
       id="linearGradient2106"
       gradientUnits="userSpaceOnUse"
       gradientTransform="translate(-74.814797,-9.0696209)"
       x1="78.130501"
       y1="125.90562"
       x2="110.55048"
       y2="119.57237" />
    <linearGradient
       inkscape:collect="always"
       xlink:href="#linearGradient1142"
       id="linearGradient2108"
       gradientUnits="userSpaceOnUse"
       gradientTransform="translate(-74.814797,-9.0696209)"
       x1="78.130501"
       y1="125.90562"
       x2="110.55048"
       y2="119.57237" />
    <linearGradient
       inkscape:collect="always"
       xlink:href="#linearGradient1111"
       id="linearGradient2129"
       gradientUnits="userSpaceOnUse"
       gradientTransform="translate(-74.160434,-8.2400482)"
       x1="96.372742"
       y1="126.82509"
       x2="96.372742"
       y2="107.12063" />
    <linearGradient
       inkscape:collect="always"
       xlink:href="#linearGradient1142"
       id="linearGradient2131"
       gradientUnits="userSpaceOnUse"
       gradientTransform="translate(-74.160434,-8.2400482)"
       x1="79.650482"
       y1="119.57237"
       x2="110.55048"
       y2="119.57237" />
  </defs>
  <g
     inkscape:label="Layer 1"
     inkscape:groupmode="layer"
     id="layer1"
     transform="translate(17.080517,-74.276543)">
    <g
       id="path1198"
       style="stroke:#ffffff;stroke-width:1.9;stroke-dasharray:none;stroke-opacity:0.567114"
       transform="matrix(0.87552909,0,0,0.87552909,2.452709,13.823929)">
      <g
         id="path1952"
         style="fill:#008bff;fill-opacity:1;stroke:#ffffff;stroke-width:1.9;stroke-dasharray:none;stroke-opacity:0.567114">
        <path
           style="color:#000000;fill:#008bff;fill-opacity:1;stroke:#ffffff;stroke-width:1.9;stroke-linecap:round;stroke-dasharray:none;stroke-opacity:0.567114;paint-order:markers stroke fill"
           d="m 19.705078,70.277344 c -22.4527104,0 -40.785156,18.332445 -40.785156,40.785156 0,22.45271 18.3327026,40.7832 40.785156,40.7832 22.452454,0 40.785156,-18.33049 40.785156,-40.7832 0,-22.452711 -18.332445,-40.785156 -40.785156,-40.785156 z m 0,13.5 c 15.158051,0 27.285156,12.127105 27.285156,27.285156 0,15.15805 -12.126804,27.2832 -27.285156,27.2832 -15.1583517,0 -27.2851561,-12.12515 -27.2851561,-27.2832 0,-15.158051 12.1271052,-27.285156 27.2851561,-27.285156 z"
           id="path2123" />
        <path
           style="color:#000000;fill:#008bff;fill-opacity:1;stroke:#ffffff;stroke-width:1.9;stroke-linecap:round;stroke-dasharray:none;stroke-opacity:0.567114;paint-order:markers stroke fill"
           d="m 19.705078,74.277344 c -20.28319074,0 -36.785156,16.501965 -36.785156,36.785156 0,20.28319 16.50196526,36.7832 36.785156,36.7832 20.283191,0 36.785156,-16.50001 36.785156,-36.7832 0,-20.283191 -16.501965,-36.785156 -36.785156,-36.785156 z m 0,5.5 c 17.310773,0 31.285156,13.974383 31.285156,31.285156 0,17.31077 -13.974383,31.2832 -31.285156,31.2832 -17.3107731,0 -31.285156,-13.97243 -31.285156,-31.2832 0,-17.310773 13.9743829,-31.285156 31.285156,-31.285156 z"
           id="path2125" />
      </g>
      <path
         style="color:#000000;fill:url(#radialGradient1208);stroke:#ffffff;stroke-width:1.9;stroke-linecap:round;stroke-dasharray:none;stroke-opacity:0.567114;paint-order:markers stroke fill"
         d="M 53.739445,111.06152 A 34.034981,34.034981 0 0 1 19.704464,145.0965 34.034981,34.034981 0 0 1 -14.330517,111.06152 34.034981,34.034981 0 0 1 19.704464,77.026543 34.034981,34.034981 0 0 1 53.739445,111.06152 Z"
         id="path1954" />
    </g>
    <g
       aria-label="$"
       id="text236"
       style="font-size:50.8px;font-family:'Daemon Full Working';-inkscape-font-specification:'Daemon Full Working';fill:url(#linearGradient1113);stroke:url(#linearGradient1144);stroke-width:5.5;stroke-linecap:round;paint-order:markers stroke fill;stop-color:#000000"
       transform="matrix(0.87552909,0,0,0.87552909,2.452709,13.823929)">
      <path
         d="m 28.560046,106.68413 q 0,-2.8448 -0.3556,-4.6228 -0.3048,-1.8288 -1.1684,-2.844799 -0.8128,-1.016 -2.286,-1.3716 -1.4732,-0.4064 -3.7592,-0.4064 -2.286,0 -3.7592,0.4064 -1.4732,0.3556 -2.3368,1.3716 -0.8636,1.015999 -1.2192,2.844799 -0.3556,1.778 -0.3556,4.6228 0,2.8448 0.3556,4.5212 0.3556,1.6764 1.2192,2.5908 0.8636,0.8636 2.3368,1.1684 1.4732,0.254 3.7592,0.254 2.286,0 3.7592,-0.254 1.4732,-0.3048 2.286,-1.1684 0.8636,-0.9144 1.1684,-2.5908 0.3556,-1.6764 0.3556,-4.5212 z m -20.3199995,0.1524 v -0.1016 -0.0508 -0.0508 -0.0508 q 0,-3.9624 0.8128,-6.705599 0.8128,-2.7432 2.3875995,-4.4196 1.5748,-1.6764 3.9116,-2.3876 2.3876,-0.762 5.588,-0.762 3.0988,0 5.3848,0.7112 2.3368,0.6604 3.9116,2.286 1.6764,1.6764 2.4892,4.4704 0.8636,2.743199 0.9144,6.857999 v 0.2032 0.0508 q 0,4.0132 -0.8128,6.604 -0.762,2.5908 -2.3368,4.1148 -1.524,1.524 -3.9116,2.1336 -2.3876,0.5588 -5.588,0.5588 h -0.0508 q -3.2004,0 -5.588,-0.5588 -2.3876,-0.6096 -3.9624,-2.1336 -1.5747995,-1.524 -2.3875995,-4.1148 -0.762,-2.5908 -0.762,-6.604 z m 8.8899995,-0.3556 q 0,1.4732 0.1524,2.3368 0.2032,0.8636 0.6096,1.3208 0.4572,0.4572 1.1684,0.6096 0.762,0.1524 1.9304,0.1524 1.1684,0 1.8796,-0.1524 0.762,-0.1524 1.1684,-0.6096 0.4064,-0.4572 0.5588,-1.3208 0.1524,-0.8636 0.1524,-2.3368 0,-1.4732 -0.1524,-2.3368 -0.1524,-0.9144 -0.5588,-1.3716 -0.4064,-0.508 -1.1684,-0.6604 -0.7112,-0.1524 -1.8796,-0.1524 -1.1684,0 -1.9304,0.1524 -0.7112,0.1524 -1.1684,0.6604 -0.4064,0.4572 -0.6096,1.3716 -0.1524,0.8636 -0.1524,2.3368 z m -2.54,0.2032 q 0,-4.064 1.5748,-5.6388 1.5748,-1.625599 4.7752,-1.625599 3.2004,0 4.7752,1.625599 1.5748,1.5748 1.5748,5.6388 0,2.032 -0.4064,3.3528 -0.3556,1.27 -1.1684,2.032 -0.8128,0.762 -2.032,1.0668 -1.1684,0.3048 -2.7432,0.3048 -1.6256,0 -2.794,-0.3048 -1.1684,-0.3048 -1.9812,-1.0668 -0.8128,-0.762 -1.2192,-2.032 -0.3556,-1.3208 -0.3556,-3.3528 z m 2.54,0.1016 q 0,1.4732 0.1524,2.3368 0.2032,0.8128 0.6096,1.2192 0.4572,0.4064 1.1684,0.508 0.762,0.0508 1.9304,0.0508 1.1684,0 1.8796,-0.0508 0.762,-0.1016 1.1684,-0.508 0.4064,-0.4064 0.5588,-1.2192 0.1524,-0.8636 0.1524,-2.3368 0,-1.4732 -0.1524,-2.3876 -0.1524,-0.9144 -0.5588,-1.4224 -0.4064,-0.5588 -1.1684,-0.762 -0.7112,-0.2032 -1.8796,-0.2032 -1.1684,0 -1.9304,0.2032 -0.7112,0.2032 -1.1684,0.762 -0.4064,0.508 -0.6096,1.4224 -0.1524,0.9144 -0.1524,2.3876 z m -2.54,-0.1016 q 0,-4.0132 1.5748,-5.588 1.6256,-1.625599 4.826,-1.625599 3.2004,0 4.7244,1.625599 1.5748,1.5748 1.5748,5.588 0,2.032 -0.4064,3.3528 -0.3556,1.27 -1.1684,2.032 -0.762,0.762 -1.9812,1.0668 -1.1684,0.3048 -2.7432,0.3048 -1.6256,0 -2.8448,-0.3048 -1.1684,-0.3048 -1.9812,-1.0668 -0.762,-0.762 -1.1684,-2.032 -0.4064,-1.3208 -0.4064,-3.3528 z M 8.2908465,93.831731 H 12.253246 V 130.35693 H 8.2908465 Z"
         id="path2058"
         style="fill:url(#linearGradient2129);stroke:url(#linearGradient2131)" />
      <path
         d="m 27.905683,105.85456 q 0,-2.8448 -0.3556,-4.6228 -0.3048,-1.828803 -1.1684,-2.844802 -0.8128,-1.016 -2.286,-1.3716 -1.4732,-0.4064 -3.7592,-0.4064 -2.286,0 -3.7592,0.4064 -1.4732,0.3556 -2.3368,1.3716 -0.8636,1.015999 -1.2192,2.844802 -0.3556,1.778 -0.3556,4.6228 0,2.8448 0.3556,4.5212 0.3556,1.6764 1.2192,2.5908 0.8636,0.8636 2.3368,1.1684 1.4732,0.254 3.7592,0.254 2.286,0 3.7592,-0.254 1.4732,-0.3048 2.286,-1.1684 0.8636,-0.9144 1.1684,-2.5908 0.3556,-1.6764 0.3556,-4.5212 z m -20.32,0.1524 v -0.1016 -0.0508 -0.0508 -0.0508 q 0,-3.9624 0.8128,-6.705602 0.8128,-2.7432 2.3876,-4.4196 1.5748,-1.6764 3.9116,-2.3876 2.3876,-0.762 5.588,-0.762 3.0988,0 5.3848,0.7112 2.3368,0.6604 3.9116,2.286 1.6764,1.6764 2.4892,4.4704 0.8636,2.743202 0.9144,6.858002 v 0.2032 0.0508 q 0,4.0132 -0.8128,6.604 -0.762,2.5908 -2.3368,4.1148 -1.524,1.524 -3.9116,2.1336 -2.3876,0.5588 -5.588,0.5588 h -0.0508 q -3.2004,0 -5.588,-0.5588 -2.3876,-0.6096 -3.9624,-2.1336 -1.5748,-1.524 -2.3876,-4.1148 -0.762,-2.5908 -0.762,-6.604 z m 8.89,-0.3556 q 0,1.4732 0.1524,2.3368 0.2032,0.8636 0.6096,1.3208 0.4572,0.4572 1.1684,0.6096 0.762,0.1524 1.9304,0.1524 1.1684,0 1.8796,-0.1524 0.762,-0.1524 1.1684,-0.6096 0.4064,-0.4572 0.5588,-1.3208 0.1524,-0.8636 0.1524,-2.3368 0,-1.4732 -0.1524,-2.3368 -0.1524,-0.9144 -0.5588,-1.3716 -0.4064,-0.508 -1.1684,-0.6604 -0.7112,-0.1524 -1.8796,-0.1524 -1.1684,0 -1.9304,0.1524 -0.7112,0.1524 -1.1684,0.6604 -0.4064,0.4572 -0.6096,1.3716 -0.1524,0.8636 -0.1524,2.3368 z m -2.54,0.2032 q 0,-4.064 1.5748,-5.6388 1.5748,-1.625602 4.7752,-1.625602 3.2004,0 4.7752,1.625602 1.5748,1.5748 1.5748,5.6388 0,2.032 -0.4064,3.3528 -0.3556,1.27 -1.1684,2.032 -0.8128,0.762 -2.032,1.0668 -1.1684,0.3048 -2.7432,0.3048 -1.6256,0 -2.794,-0.3048 -1.1684,-0.3048 -1.9812,-1.0668 -0.8128,-0.762 -1.2192,-2.032 -0.3556,-1.3208 -0.3556,-3.3528 z m 2.54,0.1016 q 0,1.4732 0.1524,2.3368 0.2032,0.8128 0.6096,1.2192 0.4572,0.4064 1.1684,0.508 0.762,0.0508 1.9304,0.0508 1.1684,0 1.8796,-0.0508 0.762,-0.1016 1.1684,-0.508 0.4064,-0.4064 0.5588,-1.2192 0.1524,-0.8636 0.1524,-2.3368 0,-1.4732 -0.1524,-2.3876 -0.1524,-0.9144 -0.5588,-1.4224 -0.4064,-0.5588 -1.1684,-0.762 -0.7112,-0.2032 -1.8796,-0.2032 -1.1684,0 -1.9304,0.2032 -0.7112,0.2032 -1.1684,0.762 -0.4064,0.508 -0.6096,1.4224 -0.1524,0.9144 -0.1524,2.3876 z m -2.54,-0.1016 q 0,-4.0132 1.5748,-5.588 1.6256,-1.625602 4.826,-1.625602 3.2004,0 4.7244,1.625602 1.5748,1.5748 1.5748,5.588 0,2.032 -0.4064,3.3528 -0.3556,1.27 -1.1684,2.032 -0.762,0.762 -1.9812,1.0668 -1.1684,0.3048 -2.7432,0.3048 -1.6256,0 -2.8448,-0.3048 -1.1684,-0.3048 -1.9812,-1.0668 -0.762,-0.762 -1.1684,-2.032 -0.4064,-1.3208 -0.4064,-3.3528 z m -6.2992,-12.852402 h 3.9624 v 36.525202 h -3.9624 z"
         id="path2058-7"
         style="font-size:50.8px;font-family:'Daemon Full Working';-inkscape-font-specification:'Daemon Full Working';fill:url(#linearGradient2106);stroke:url(#linearGradient2108);stroke-width:5.5;stroke-linecap:round;paint-order:markers stroke fill;stop-color:#000000" />
    </g>
  </g>
</svg>
